<mxfile host="65bd71144e">
    <diagram id="4gruFqL47rk32d3eA1r_" name="Page-1">
        <mxGraphModel dx="1963" dy="2794" grid="0" gridSize="10" guides="1" tooltips="1" connect="1" arrows="1" fold="1" page="1" pageScale="1" pageWidth="1169" pageHeight="827" background="#FFFFFF" math="0" shadow="1">
            <root>
                <mxCell id="0"/>
                <mxCell id="1" parent="0"/>
                <mxCell id="10" value="&lt;h1&gt;Lem-in: Digital Version of an Ant Farm&lt;/h1&gt;&lt;p&gt;Project team members: Sonal Kamat, Giacomo Tobiolo, Helena Sedmak&lt;/p&gt;" style="text;html=1;strokeColor=none;fillColor=none;spacing=5;spacingTop=-20;whiteSpace=wrap;overflow=hidden;rounded=0;fontFamily=Times New Roman;fontSize=16;fontColor=#000000;align=center;" parent="1" vertex="1">
                    <mxGeometry x="260" y="-1640" width="570" height="120" as="geometry"/>
                </mxCell>
                <mxCell id="21" value="Tasks Overview" style="text;html=1;strokeColor=none;fillColor=none;align=center;verticalAlign=middle;whiteSpace=wrap;rounded=0;fontFamily=Times New Roman;fontSize=16;fontStyle=1" vertex="1" parent="1">
                    <mxGeometry x="1" y="-1520" width="144" height="30" as="geometry"/>
                </mxCell>
                <mxCell id="64" value="Checks for&lt;br style=&quot;font-size: 16px;&quot;&gt;&amp;nbsp;input errors" style="shape=step;perimeter=stepPerimeter;whiteSpace=wrap;html=1;fixedSize=1;fontFamily=Times New Roman;fontSize=16;rounded=0;fontColor=#000000;flipH=0;" vertex="1" parent="1">
                    <mxGeometry x="145" y="-1500" width="120" height="80" as="geometry"/>
                </mxCell>
                <mxCell id="65" value="&lt;font style=&quot;font-size: 16px&quot;&gt;Make a graph &lt;br&gt;of rooms &lt;br&gt;and tunnels&lt;br&gt;&lt;/font&gt;" style="shape=step;perimeter=stepPerimeter;whiteSpace=wrap;html=1;fixedSize=1;fontFamily=Times New Roman;fontSize=16;rounded=0;fontColor=#000000;" vertex="1" parent="1">
                    <mxGeometry x="389" y="-1500" width="130" height="80" as="geometry"/>
                </mxCell>
                <mxCell id="66" value="&lt;font style=&quot;font-size: 16px&quot;&gt;Identify the shortest &lt;br style=&quot;font-size: 16px&quot;&gt;path&lt;/font&gt;" style="shape=step;perimeter=stepPerimeter;whiteSpace=wrap;html=1;fixedSize=1;fontFamily=Times New Roman;fontSize=16;rounded=0;fontColor=#000000;" vertex="1" parent="1">
                    <mxGeometry x="590" y="-1510" width="120" height="80" as="geometry"/>
                </mxCell>
                <mxCell id="67" value="&lt;font style=&quot;font-size: 16px&quot;&gt;Sequentially move ants from room to room&lt;/font&gt;" style="shape=step;perimeter=stepPerimeter;whiteSpace=wrap;html=1;fixedSize=1;fontFamily=Times New Roman;fontSize=19;rounded=0;fontColor=#000000;" vertex="1" parent="1">
                    <mxGeometry x="750" y="-1510" width="220" height="80" as="geometry"/>
                </mxCell>
                <mxCell id="68" value="&lt;font style=&quot;font-size: 16px&quot;&gt;Print input file content and &lt;br&gt;ant's moves&lt;/font&gt;" style="shape=step;perimeter=stepPerimeter;whiteSpace=wrap;html=1;fixedSize=1;fontFamily=Times New Roman;fontSize=19;rounded=0;fontColor=#000000;" vertex="1" parent="1">
                    <mxGeometry x="990" y="-1510" width="130" height="80" as="geometry"/>
                </mxCell>
                <mxCell id="69" value="&lt;font color=&quot;#000000&quot;&gt;Input text files&lt;/font&gt;" style="shape=parallelogram;perimeter=parallelogramPerimeter;whiteSpace=wrap;html=1;fixedSize=1;fontFamily=Times New Roman;fontSize=16;fontColor=#0000FF;" vertex="1" parent="1">
                    <mxGeometry x="130" y="-1411" width="150" height="30" as="geometry"/>
                </mxCell>
                <mxCell id="70" value="&lt;font color=&quot;#000000&quot;&gt;Input text files&lt;/font&gt;" style="shape=parallelogram;perimeter=parallelogramPerimeter;whiteSpace=wrap;html=1;fixedSize=1;fontFamily=Times New Roman;fontSize=16;fontColor=#0000FF;" vertex="1" parent="1">
                    <mxGeometry x="379" y="-1381" width="150" height="30" as="geometry"/>
                </mxCell>
                <mxCell id="71" value="Binomial &lt;br&gt;search tree" style="shape=parallelogram;perimeter=parallelogramPerimeter;whiteSpace=wrap;html=1;fixedSize=1;fontFamily=Times New Roman;fontSize=16;fontColor=#000000;" vertex="1" parent="1">
                    <mxGeometry x="349" y="-1275" width="150" height="60" as="geometry"/>
                </mxCell>
                <mxCell id="72" value="Formulas to check&lt;br&gt;bad input data and unknown commands" style="rhombus;whiteSpace=wrap;html=1;fontFamily=Times New Roman;fontSize=16;fontColor=#000000;" vertex="1" parent="1">
                    <mxGeometry x="82.5" y="-1375" width="220" height="100" as="geometry"/>
                </mxCell>
                <mxCell id="73" value="Checks" style="swimlane;fontStyle=0;childLayout=stackLayout;horizontal=1;startSize=30;horizontalStack=0;resizeParent=1;resizeParentMax=0;resizeLast=0;collapsible=1;marginBottom=0;fontFamily=Times New Roman;fontSize=19;fontColor=#000000;" vertex="1" parent="1">
                    <mxGeometry x="60" y="-1266" width="260" height="240" as="geometry">
                        <mxRectangle x="320" y="-550" width="90" height="30" as="alternateBounds"/>
                    </mxGeometry>
                </mxCell>
                <mxCell id="74" value="1. No start to end path exists" style="text;strokeColor=none;fillColor=none;align=left;verticalAlign=middle;spacingLeft=4;spacingRight=4;overflow=hidden;points=[[0,0.5],[1,0.5]];portConstraint=eastwest;rotatable=0;fontFamily=Times New Roman;fontSize=16;fontColor=#000000;" vertex="1" parent="73">
                    <mxGeometry y="30" width="260" height="30" as="geometry"/>
                </mxCell>
                <mxCell id="75" value="2. Rooms with infinite loops" style="text;strokeColor=none;fillColor=none;align=left;verticalAlign=middle;spacingLeft=4;spacingRight=4;overflow=hidden;points=[[0,0.5],[1,0.5]];portConstraint=eastwest;rotatable=0;fontFamily=Times New Roman;fontSize=16;fontColor=#000000;" vertex="1" parent="73">
                    <mxGeometry y="60" width="260" height="30" as="geometry"/>
                </mxCell>
                <mxCell id="76" value="3. Too many or too few ants&#10;" style="text;strokeColor=none;fillColor=none;align=left;verticalAlign=middle;spacingLeft=4;spacingRight=4;overflow=hidden;points=[[0,0.5],[1,0.5]];portConstraint=eastwest;rotatable=0;fontFamily=Times New Roman;fontSize=16;fontColor=#000000;" vertex="1" parent="73">
                    <mxGeometry y="90" width="260" height="30" as="geometry"/>
                </mxCell>
                <mxCell id="77" value="4. Duplicate rooms" style="text;strokeColor=none;fillColor=none;align=left;verticalAlign=middle;spacingLeft=4;spacingRight=4;overflow=hidden;points=[[0,0.5],[1,0.5]];portConstraint=eastwest;rotatable=0;fontFamily=Times New Roman;fontSize=16;fontColor=#000000;" vertex="1" parent="73">
                    <mxGeometry y="120" width="260" height="30" as="geometry"/>
                </mxCell>
                <mxCell id="78" value="5. Invalid room coordinates" style="text;strokeColor=none;fillColor=none;align=left;verticalAlign=middle;spacingLeft=4;spacingRight=4;overflow=hidden;points=[[0,0.5],[1,0.5]];portConstraint=eastwest;rotatable=0;fontFamily=Times New Roman;fontSize=16;fontColor=#000000;" vertex="1" parent="73">
                    <mxGeometry y="150" width="260" height="30" as="geometry"/>
                </mxCell>
                <mxCell id="79" value="6. Unknown commands" style="text;strokeColor=none;fillColor=none;align=left;verticalAlign=middle;spacingLeft=4;spacingRight=4;overflow=hidden;points=[[0,0.5],[1,0.5]];portConstraint=eastwest;rotatable=0;fontFamily=Times New Roman;fontSize=16;fontColor=#000000;" vertex="1" parent="73">
                    <mxGeometry y="180" width="260" height="30" as="geometry"/>
                </mxCell>
                <mxCell id="80" value="7.Other poorly formatted inputs" style="text;strokeColor=none;fillColor=none;align=left;verticalAlign=middle;spacingLeft=4;spacingRight=4;overflow=hidden;points=[[0,0.5],[1,0.5]];portConstraint=eastwest;rotatable=0;fontFamily=Times New Roman;fontSize=16;fontColor=#000000;" vertex="1" parent="73">
                    <mxGeometry y="210" width="260" height="30" as="geometry"/>
                </mxCell>
                <mxCell id="81" value="&lt;div style=&quot;text-align: left&quot;&gt;&lt;span style=&quot;color: rgb(0 , 0 , 0)&quot;&gt;Either:&lt;/span&gt;&lt;/div&gt;&lt;font color=&quot;#000000&quot;&gt;Output error message&lt;br&gt;&lt;div style=&quot;text-align: left&quot;&gt;&lt;span&gt;or:&lt;/span&gt;&lt;/div&gt;&lt;div style=&quot;text-align: left&quot;&gt;&lt;span&gt;Program continues&lt;/span&gt;&lt;/div&gt;&lt;br&gt;&lt;/font&gt;" style="shape=parallelogram;perimeter=parallelogramPerimeter;whiteSpace=wrap;html=1;fixedSize=1;fontFamily=Times New Roman;fontSize=16;fontColor=#0000FF;" vertex="1" parent="1">
                    <mxGeometry x="82.5" y="-1022" width="190" height="107" as="geometry"/>
                </mxCell>
                <mxCell id="82" value="Error Checks&lt;br&gt;Done" style="rounded=1;whiteSpace=wrap;html=1;fontFamily=Times New Roman;fontSize=16;" vertex="1" parent="1">
                    <mxGeometry x="110" y="-900" width="120" height="60" as="geometry"/>
                </mxCell>
                <mxCell id="87" value="Binomial search tree" style="shape=parallelogram;perimeter=parallelogramPerimeter;whiteSpace=wrap;html=1;fixedSize=1;fontFamily=Times New Roman;fontSize=16;fontColor=#000000;" vertex="1" parent="1">
                    <mxGeometry x="580" y="-1390" width="120" height="60" as="geometry"/>
                </mxCell>
                <mxCell id="88" value="Bredth First Search&amp;nbsp;&lt;br&gt;to select optimal paths" style="rhombus;whiteSpace=wrap;html=1;fontFamily=Times New Roman;fontSize=16;fontColor=#000000;" vertex="1" parent="1">
                    <mxGeometry x="510" y="-1280" width="220" height="100" as="geometry"/>
                </mxCell>
                <mxCell id="89" value="" style="endArrow=classic;html=1;fontFamily=Times New Roman;fontSize=19;fontColor=#000000;exitX=0.417;exitY=1;exitDx=0;exitDy=0;exitPerimeter=0;entryX=0.5;entryY=0;entryDx=0;entryDy=0;" edge="1" parent="1" source="66" target="87">
                    <mxGeometry width="50" height="50" relative="1" as="geometry">
                        <mxPoint x="680" y="-1310" as="sourcePoint"/>
                        <mxPoint x="730" y="-1360" as="targetPoint"/>
                    </mxGeometry>
                </mxCell>
                <mxCell id="91" value="" style="endArrow=classic;html=1;fontFamily=Times New Roman;fontSize=19;fontColor=#000000;exitX=0.332;exitY=1.029;exitDx=0;exitDy=0;exitPerimeter=0;entryX=0.5;entryY=0;entryDx=0;entryDy=0;" edge="1" parent="1" source="87" target="88">
                    <mxGeometry width="50" height="50" relative="1" as="geometry">
                        <mxPoint x="620" y="-1320" as="sourcePoint"/>
                        <mxPoint x="619.96" y="-1280" as="targetPoint"/>
                        <Array as="points">
                            <mxPoint x="620" y="-1300"/>
                        </Array>
                    </mxGeometry>
                </mxCell>
                <mxCell id="92" value="" style="endArrow=classic;html=1;fontFamily=Times New Roman;fontSize=19;fontColor=#000000;exitX=0.5;exitY=1;exitDx=0;exitDy=0;entryX=0.407;entryY=0.033;entryDx=0;entryDy=0;entryPerimeter=0;" edge="1" parent="1" source="65" target="70">
                    <mxGeometry width="50" height="50" relative="1" as="geometry">
                        <mxPoint x="450" y="-1400" as="sourcePoint"/>
                        <mxPoint x="449.96000000000004" y="-1360" as="targetPoint"/>
                        <Array as="points">
                            <mxPoint x="440" y="-1420"/>
                        </Array>
                    </mxGeometry>
                </mxCell>
                <mxCell id="94" value="" style="endArrow=classic;html=1;fontFamily=Times New Roman;fontSize=19;fontColor=#000000;" edge="1" parent="1">
                    <mxGeometry width="50" height="50" relative="1" as="geometry">
                        <mxPoint x="440" y="-1350" as="sourcePoint"/>
                        <mxPoint x="440" y="-1280" as="targetPoint"/>
                        <Array as="points">
                            <mxPoint x="440" y="-1350"/>
                        </Array>
                    </mxGeometry>
                </mxCell>
                <mxCell id="96" value="Algorithm to progress&lt;br&gt;ants into rooms" style="rhombus;whiteSpace=wrap;html=1;fontFamily=Times New Roman;fontSize=16;fontColor=#000000;" vertex="1" parent="1">
                    <mxGeometry x="740" y="-1370" width="220" height="100" as="geometry"/>
                </mxCell>
                <mxCell id="97" value="" style="endArrow=classic;html=1;fontFamily=Times New Roman;fontSize=19;fontColor=#000000;exitX=0.417;exitY=1;exitDx=0;exitDy=0;exitPerimeter=0;" edge="1" parent="1">
                    <mxGeometry width="50" height="50" relative="1" as="geometry">
                        <mxPoint x="849.62" y="-1426" as="sourcePoint"/>
                        <mxPoint x="849.29" y="-1366" as="targetPoint"/>
                        <Array as="points">
                            <mxPoint x="849.62" y="-1416"/>
                        </Array>
                    </mxGeometry>
                </mxCell>
                <mxCell id="100" value="rooms&lt;br style=&quot;font-size: 15px;&quot;&gt;links&lt;br style=&quot;font-size: 15px;&quot;&gt;ants' moves" style="shape=parallelogram;perimeter=parallelogramPerimeter;whiteSpace=wrap;html=1;fixedSize=1;fontFamily=Times New Roman;fontSize=15;fontColor=#000000;" vertex="1" parent="1">
                    <mxGeometry x="995" y="-1350" width="135" height="90" as="geometry"/>
                </mxCell>
                <mxCell id="101" value="" style="endArrow=classic;html=1;fontFamily=Times New Roman;fontSize=19;fontColor=#000000;exitX=0.427;exitY=1.021;exitDx=0;exitDy=0;exitPerimeter=0;entryX=0.41;entryY=-0.067;entryDx=0;entryDy=0;entryPerimeter=0;" edge="1" parent="1" source="68" target="100">
                    <mxGeometry width="50" height="50" relative="1" as="geometry">
                        <mxPoint x="680" y="-1310" as="sourcePoint"/>
                        <mxPoint x="730" y="-1360" as="targetPoint"/>
                    </mxGeometry>
                </mxCell>
                <mxCell id="102" value="Author: Helena Sedmak, May 2022" style="text;html=1;strokeColor=none;fillColor=none;align=center;verticalAlign=middle;whiteSpace=wrap;rounded=0;fontFamily=Times New Roman;fontSize=16;" vertex="1" parent="1">
                    <mxGeometry x="860" y="-890" width="240" height="30" as="geometry"/>
                </mxCell>
            </root>
        </mxGraphModel>
    </diagram>
</mxfile>